<?xml version="1.0" encoding="UTF-8"?> <svg xmlns="http://www.w3.org/2000/svg" xmlns:xlink="http://www.w3.org/1999/xlink" version="1.1" id="Layer_2" x="0px" y="0px" viewBox="0 0 440 168.24" style="enable-background:new 0 0 440 168.24;" xml:space="preserve"> <style type="text/css"> .st0{fill:#2077BD;} .st1{fill:#49A49E;} </style> <g> <g> <g> <path class="st0" d="M43.08,65.45v92.87H22V65.45H43.08z"></path> <path class="st0" d="M61.26,66.69c6.48-1.1,15.57-1.93,28.38-1.93c12.95,0,22.18,2.48,28.38,7.44c5.92,4.69,9.92,12.4,9.92,21.49 s-3.03,16.81-8.54,22.05c-7.16,6.75-17.77,9.78-30.17,9.78c-2.76,0-5.24-0.14-7.16-0.41v33.21H61.26V66.69z M82.07,108.85 c1.79,0.41,4,0.55,7.03,0.55c11.16,0,18.05-5.65,18.05-15.16c0-8.54-5.92-13.64-16.4-13.64c-4.27,0-7.16,0.41-8.68,0.83V108.85z"></path> <path class="st0" d="M141.31,66.69c6.48-1.1,15.57-1.93,28.38-1.93c12.95,0,22.18,2.48,28.38,7.44C204,76.88,208,84.6,208,93.69 s-3.03,16.81-8.54,22.05c-7.16,6.75-17.77,9.78-30.17,9.78c-2.76,0-5.24-0.14-7.16-0.41v33.21h-20.81V66.69z M162.12,108.85 c1.79,0.41,4,0.55,7.03,0.55c11.16,0,18.05-5.65,18.05-15.16c0-8.54-5.92-13.64-16.4-13.64c-4.27,0-7.16,0.41-8.68,0.83V108.85z"></path> <path class="st0" d="M306.37,110.91c0,30.45-18.46,48.91-45.61,48.91c-27.56,0-43.68-20.81-43.68-47.26 c0-27.83,17.77-48.64,45.19-48.64C290.8,63.93,306.37,85.29,306.37,110.91z M239.27,112.15c0,18.19,8.54,31,22.6,31 c14.19,0,22.32-13.5,22.32-31.55c0-16.67-7.99-31-22.46-31C247.54,80.6,239.27,94.1,239.27,112.15z"></path> <path class="st0" d="M320.83,136.68c5.65,2.89,14.33,5.79,23.29,5.79c9.64,0,14.74-4,14.74-10.06c0-5.79-4.41-9.09-15.57-13.09 c-15.43-5.37-25.49-13.92-25.49-27.42c0-15.85,13.23-27.97,35.14-27.97c10.47,0,18.19,2.2,23.7,4.68l-4.68,16.95 c-3.72-1.79-10.33-4.41-19.43-4.41s-13.5,4.13-13.5,8.96c0,5.92,5.24,8.54,17.22,13.09c16.4,6.06,24.11,14.6,24.11,27.69 c0,15.57-11.99,28.8-37.48,28.8c-10.61,0-21.08-2.76-26.32-5.65L320.83,136.68z"></path> <path class="st0" d="M415.62,65.45v92.87h-21.08V65.45H415.62z"></path> </g> </g> <path class="st1" d="M402.57,59.14c0-5.23-1.23-8.18-4.3-12.17c-3.07-4-11.68-10.88-11.68-10.88s1.54-22.2-0.86-27.67 c7.62,2.83,15.93,11.25,18.02,15.19c-2.28-2.46-12.14-8.75-13.61-9.18c0.7,5.18,0.76,19.36,0.76,19.36s10.08,11.9,11.01,13.68 c0.92-9.96,9.09-23.75,16.1-29.16c-4.3,5.29-14.2,18.83-13.58,40.85H402.57z"></path> </g> </svg> 