<?xml version="1.0" encoding="UTF-8"?><svg id="Layer_2" xmlns="http://www.w3.org/2000/svg" viewBox="0 0 1378.641 1370.248"><defs><style>.cls-1{fill:#004494;}.cls-2{fill:#fff;}.cls-3{fill:#ffd617;}</style></defs><g id="Layer_1-2"><g id="winner"><path class="cls-1" d="M689.321,0C308.619,0,0,306.74,0,685.124s308.619,685.124,689.321,685.124,689.32-306.741,689.32-685.124S1070.022,0,689.321,0Zm0,11.465c261.069,0,487.445,148.51,599.275,365.655-15.262,5.893-25.085,17.949-33.401,31.187-11.331,18.04-17.844,38.363-25.848,57.962-.081,.197-.175,.389-.282,.573-7.115,12.21-14.231,24.419-21.346,36.629-.111,.191-.236,.375-.373,.548-8.105,10.269-17.327,19.47-26.961,28.277-.44,.403-.958,.712-1.521,.91-9.414,3.317-18.823,6.673-29.045,4.062-.41-.105-.805-.274-1.17-.489-9.918-5.83-19.837-11.66-29.755-17.489-.495-.291-.926-.686-1.271-1.145-10.147-13.459-24.062-17.946-40.375-15.864-8.934,1.14-17.731,.147-26.573-.353-4.405-3.02-7.848-5.381-12.253-8.401-1.767-3.974-3.71-7.949-8.029-9.255-5.081-1.537-8.231,3.754-12.307,5.928-7.382,3.938-14.565,3.776-21.882-1.217-9.867-6.733-20.121-12.923-30.419-18.991-13.255-7.811-16.246-7.118-26.892,5.031-12.02,13.716-25.554,22.741-44.437,15.292-.716-.283-1.347-.766-1.825-1.37-8.394-10.608-16.788-21.215-25.182-31.822-.12-.152-.23-.311-.329-.477-12.3-20.582-24.468-41.246-36.989-61.692-3.472-5.67-6.033-12.21-11.96-16.054-.556-.36-1.039-.824-1.398-1.381-7.607-11.803-19.552-17.163-32.331-21.284-11.939-4.202-24.38-4.975-36.797-5.919-5.944-.452-11.771-1.901-17.235-4.286-6.939-3.028-13.878-6.056-20.816-9.084-.193-.084-.379-.182-.558-.293-25.069-15.515-50.094-31.092-72.092-50.929-9.953-11.95-25.911-31.107-35.864-43.057-13.655-21.555-24.748-44.477-34.893-67.905-.099-.229-.179-.467-.239-.71-.437-1.771-.873-3.541-1.31-5.312-4.984-19.114-9.967-38.229-14.951-57.344-.264-1.55-.527-3.091-.791-4.64-1.225-14.803-2.45-29.605-3.675-44.408l1.908-35.839c45.841-9.85,93.41-15.044,142.195-15.044ZM214.778,206.99c.457,.657,1.082,1.216,1.899,1.56,10.86,4.575,21.65,9.4,32.389,14.419,49.32,23.048,87.306,57.979,116.69,103.098,2.245,3.448,4.069,7.295,5.893,10.831,15.354,29.76,16.96,40.27,24.165,60.909,15.86,45.437,25.776,91.803,22.692,140.287-.775,12.186-2.715,24.19-5.625,36.054-1.116,4.551-3.632,8.29-6.185,12.043-2.901,4.265-5.962,8.423-8.824,12.713-5.826,8.733-6.871,17.965-2.602,27.667,8.984,20.418,17.976,40.833,26.96,61.251,7.238,16.447,14.518,32.865,20.8,49.726,2.864,7.686,1.197,13.595-4.217,19.121-7.614,7.772-16.41,13.804-26.358,18.166-2.079,.911-4.218,1.689-6.343,2.492-17.023,6.431-18.693,9.241-16.167,27.183,1.035,7.353,2.505,14.676,1.83,22.165-.752,8.339-4.271,14.666-12.934,16.902-5.313,1.372-7.452,4.729-6.979,10.03,.147,1.645,.082,3.319,.353,4.94,2.111,12.636-4.093,20.929-14.813,25.655-8.517,3.754-11.397,9.848-11.836,18.394-.372,7.243-.334,14.443,.401,21.639,1.376,13.465-3.356,25.263-10.363,36.216-5.004,7.822-13.186,11.013-21.992,12.487-14.98,2.507-29.809,.721-44.086-3.648-24.123-7.383-48.242-14.421-73.503-16.742-40.382-3.71-79.102,.334-115.074,16.509-.476,1.268-.833,2.218-1.2,3.194C38.652,885.149,15.662,787.823,15.662,685.124c0-186.939,76.152-356.087,199.117-478.134Zm474.542,1151.793c-56.63,0-111.623-7-164.173-20.16,4.366-4.02,8.562-8.223,12.687-12.503,.059-.061,.119-.12,.182-.176,7.758-7.045,15.11-14.475,21.604-22.721,.05-.063,.102-.125,.156-.184,6.706-7.414,13.251-14.929,16.205-24.709,.567-1.499,1.493-3.946,2.06-5.445,4.732-10.807,9.416-21.64,16.751-31.039,.166-.213,.351-.416,.549-.6,7.411-6.908,16.783-10.48,25.612-14.974,.245-.125,.505-.224,.771-.297,26.037-7.101,39.083-24.296,37.651-49.943-.895-16.037-6.611-30.476-15.225-43.872-1.515-2.616-2.919-5.304-4.562-7.837-14.958-23.061-32.97-44.453-39.365-72.175-.034-.145-.062-.294-.084-.441-1.955-12.922-1.152-25.505,4.669-37.471,.43-.11,.628-.387,.593-.83,5.86-7.985,13.162-13.721,22.71-15.955,3.005-.182,7.809-.473,10.814-.655,6.512,.58,13.028,.498,19.499-.558,11.86-1.937,19.577-9.543,21.544-21.33,.838-5.024,1.27-10.138,.256-15.224-.077-.384-.107-.778-.077-1.169,.772-10.142,1.657-20.255,9.74-28.484,2.184-1.485,5.633-3.829,7.817-5.314,3.002-1.332,6.003-2.665,9.005-3.997,.859-.381,1.819-.478,2.736-.276,12.403,2.739,12.637,2.436,12.013-7.653,.121-1.774,.241-3.538,.362-5.312,2.561-11.868,10.369-18.311,22.128-20.669,.199-.04,.404-.065,.607-.079,10.945-.702,20.803-3.559,26.964-13.743,6.064-8.121,7.011-16.857,3.144-26.171-3.516-9.481-7.033-18.962-10.549-28.443-.144-.389-.239-.797-.271-1.211-.454-5.845,.496-11.409,3.335-16.594,.173-.316,.387-.62,.626-.889,5.889-6.635,13.648-8.994,21.956-10.1,7.769,.718,15.26,1.41,23.029,2.127,5.499,1.763,11.163,2.418,16.903,2.56,.141,.004,.283,.015,.423,.034,24.693,3.443,49.617,3.208,74.435,4.664,.318,.019,.634,.077,.94,.166,3.79,1.103,7.666,1.476,11.599,1.377,.354-.009,.708,.025,1.053,.104,7.852,1.814,15.747,3.123,23.849,2.007,.128-.018,.259-.027,.388-.029,13.502-.189,23.277-6.96,29.427-20.137,4.442-6.468,8.772-12.773,13.214-19.241,1.009-1.01,2.017-2.021,3.026-3.031,.236-.237,.498-.449,.78-.628,7.16-4.566,14.744-8.017,23.1-10.015,11.974-2.863,24.266-4.361,35.974-8.349,.143-.049,.289-.089,.437-.119,10.15-2.081,19.993-5.227,29.776-8.584,9.998-3.164,19.995-6.329,29.993-9.493,19.859-5.422,39.819-10.418,60.055-14.239,12.962-1.384,25.867-2.761,38.829-4.145l7.213-.21c8.266,.44,16.491,.877,24.757,1.317l19.688,2.681c6.574,1.493,13.109,2.977,19.682,4.47l22.364,7.196c6.131,2.474,12.237,4.938,18.367,7.412l17.943,8.796c.082,.04,.162,.082,.242,.127,7.647,4.305,15.193,8.772,22.663,13.36-32.533,341.727-320.338,609.022-670.585,609.022Z"/><g id="B1MG"><path id="_1" class="cls-2" d="M538.257,557.361v155.026c0,11.609-6.288,17.897-17.655,17.897-11.609,0-17.655-6.288-17.655-17.897v-137.613l-40.631,34.827c-7.739,6.772-15.478,5.804-21.766-1.693-6.046-7.497-5.562-14.995,2.177-21.766l51.756-44.5c6.046-5.079,11.609-7.014,19.348-7.014h1.693c14.511,0,22.734,8.223,22.734,22.734Z"/><path id="M" class="cls-2" d="M908.08,557.603v154.784c0,11.609-6.046,17.897-17.413,17.897s-17.413-6.288-17.413-17.897l1.209-125.036-47.403,78.601c-4.353,7.255-8.706,10.641-14.269,10.641s-10.4-3.386-14.511-10.641l-47.402-78.36,.967,124.795c.242,11.609-5.804,17.897-17.171,17.897-11.125,0-17.413-6.288-17.413-17.897v-154.784c0-14.753,8.223-22.976,22.976-22.976h1.935c9.432,0,16.446,4.595,21.767,13.544l48.854,81.745,48.612-81.745c5.079-8.949,12.334-13.544,21.766-13.544h1.935c14.753,0,22.976,8.223,22.976,22.976Z"/><path id="G" class="cls-2" d="M1079.76,631.133v25.481c0,44.232-31.491,73.8-78.848,73.8s-79.088-29.808-79.088-74.761v-45.674c0-45.434,31.972-75.482,80.05-75.482,27.164,0,53.366,11.539,65.146,32.933,3.365,6.01,2.644,17.789-8.173,21.875-9.856,3.606-17.068-.24-20.673-4.327-10.577-13.702-24.52-19.472-36.299-19.472-26.924,0-44.953,18.51-44.953,46.395v41.828c0,27.404,17.789,45.674,43.991,45.674,27.404,0,43.751-17.789,43.751-44.712v-8.894h-33.174c-9.856,0-15.385-5.289-15.385-15.145,0-9.616,5.529-14.904,15.385-14.904h52.645c10.096,0,15.625,5.529,15.625,15.385Z"/></g><path class="cls-3" d="M692.107,629.864c0,9.045-5.428,14.212-14.987,14.212h-32.559v45.522c0,11.887-6.202,18.347-18.088,18.347-11.628,0-18.089-6.46-18.089-18.347v-45.522h-32.559c-9.56,0-14.986-5.167-14.986-14.212s5.426-14.212,14.986-14.212h32.559v-40.081c0-11.887,6.461-18.606,18.089-18.606s18.088,6.719,18.088,18.606v40.081h32.559c9.56,0,14.987,5.167,14.987,14.212Z"/></g></g></svg>