<?xml version="1.0" encoding="UTF-8"?><svg id="Layer_2" xmlns="http://www.w3.org/2000/svg" viewBox="0 0 1367.374 1359.049"><defs><style>.cls-1{fill:#fff;}.cls-2{fill:#099;}.cls-3{fill:#ce0066;}</style></defs><g id="Layer_1-2"><g id="winner"><g><path id="B" class="cls-3" d="M353.788,650.814v5.517c0,31.423-22.788,52.292-56.61,52.292h-78.438c-10.075,0-15.592-5.517-15.592-15.591v-159.516c0-10.074,5.517-15.592,15.592-15.592h73.641c34.062,0,56.61,20.39,56.61,51.333v4.078c0,16.791-8.875,29.744-23.987,37.18,17.991,7.196,28.785,21.589,28.785,40.299Zm-115.619-54.211h52.293c14.152,0,23.508-9.355,23.508-23.268v-2.159c0-13.912-9.355-23.028-23.508-23.028h-52.293v48.454Zm80.598,54.211c0-14.392-9.595-24.227-23.508-24.227h-57.09v51.813h57.09c13.913,0,23.508-9.595,23.508-23.987v-3.598Z"/><g id="Beyond"><path class="cls-3" d="M217.94,752.025v1.081c0,6.157-4.465,10.247-11.092,10.247h-15.37c-1.975,0-3.055-1.081-3.055-3.055v-31.258c0-1.974,1.081-3.055,3.055-3.055h14.43c6.674,0,11.093,3.996,11.093,10.059v.799c0,3.291-1.74,5.829-4.701,7.286,3.526,1.41,5.64,4.23,5.64,7.897Zm-22.656-10.623h10.247c2.774,0,4.606-1.833,4.606-4.56v-.423c0-2.726-1.833-4.513-4.606-4.513h-10.247v9.495Zm15.794,10.623c0-2.82-1.88-4.747-4.606-4.747h-11.187v10.153h11.187c2.726,0,4.606-1.88,4.606-4.701v-.705Z"/><path class="cls-3" d="M245.44,747.653v1.692c0,1.739-.987,2.726-2.726,2.726h-14.994v.47c0,3.76,2.303,6.252,5.734,6.252,1.975,0,3.855-.799,5.406-2.538,.564-.564,1.503-1.128,3.008-.705,2.303,.705,2.82,2.585,2.116,3.761-1.693,2.914-5.97,4.512-10.53,4.512-7.379,0-12.315-4.56-12.315-11.422v-4.748c0-6.862,4.842-11.422,12.127-11.422s12.174,4.559,12.174,11.422Zm-6.58-.141c0-3.76-2.257-6.251-5.594-6.251s-5.546,2.491-5.546,6.251v.047h11.14v-.047Z"/><path class="cls-3" d="M270.729,740.744l-8.837,24.442c-1.786,4.982-5.546,8.226-10.717,8.226-1.644,0-2.632-.987-2.632-2.726,0-1.598,.799-2.491,2.257-2.491,1.927,0,3.713-1.222,4.324-3.055l.893-2.444-8.225-21.95c-.752-2.068-.094-3.62,1.927-4.231s3.526,.141,4.184,2.162l5.593,16.357,5.123-16.216c.611-2.115,2.116-2.961,4.137-2.303,1.974,.658,2.679,2.209,1.974,4.231Z"/><path class="cls-3" d="M273.033,752.26v-4.465c0-6.957,4.982-11.563,12.457-11.563s12.409,4.606,12.409,11.563v4.465c0,6.957-4.936,11.563-12.409,11.563s-12.457-4.606-12.457-11.563Zm18.285-.188v-4.089c0-3.619-2.303-6.063-5.828-6.063s-5.876,2.444-5.876,6.063v4.089c0,3.62,2.35,6.017,5.876,6.017s5.828-2.397,5.828-6.017Z"/><path class="cls-3" d="M325.82,746.337v14.054c0,2.162-1.128,3.384-3.291,3.384-2.115,0-3.291-1.222-3.291-3.384v-13.02c0-3.29-2.115-5.452-5.264-5.452-3.102,0-5.264,2.162-5.264,5.452v13.02c0,2.162-1.128,3.384-3.29,3.384-2.116,0-3.291-1.222-3.291-3.384v-20.729c0-2.162,1.081-3.384,3.055-3.384,1.927,0,3.008,1.175,3.102,3.337v.094c1.74-2.209,4.418-3.478,7.708-3.478,5.922,0,9.824,4.042,9.824,10.105Z"/><path class="cls-3" d="M354.717,728.9l.117,31.445c.008,2.162-1.021,3.388-2.949,3.395-1.975,.007-3.06-1.211-3.162-3.326l-.002-.47c-1.824,2.451-4.686,3.872-8.211,3.885-6.346,.024-10.545-4.379-10.57-11.007l-.02-5.499c-.025-6.628,4.142-11.062,10.488-11.085,3.243-.012,5.927,1.153,7.767,3.261l-.039-10.576c-.008-2.162,1.163-3.389,3.278-3.397s3.295,1.21,3.303,3.372Zm-6.495,23.15l-.015-4.089c-.013-3.619-2.372-6.054-5.897-6.041s-5.82,2.466-5.806,6.085l.015,4.089c.013,3.619,2.326,6.008,5.851,5.995s5.866-2.419,5.852-6.038Z"/></g></g><path class="cls-2" d="M683.687,0C306.097,0,0,304.233,0,679.525s306.097,679.525,683.687,679.525,683.687-304.234,683.687-679.525S1061.277,0,683.687,0Zm0,11.371c258.935,0,483.462,147.296,594.377,362.666-15.138,5.845-24.88,17.802-33.128,30.932-11.238,17.893-17.698,38.049-25.637,57.489-.08,.196-.174,.386-.28,.568-7.057,12.11-14.115,24.22-21.172,36.329-.111,.189-.234,.372-.37,.544-8.039,10.185-17.186,19.311-26.74,28.046-.437,.399-.951,.706-1.509,.902-9.338,3.29-18.67,6.619-28.807,4.029-.406-.104-.799-.272-1.161-.485-9.837-5.782-19.675-11.564-29.512-17.346-.491-.289-.918-.681-1.261-1.135-10.064-13.349-23.865-17.799-40.045-15.734-8.861,1.131-17.586,.146-26.356-.35-4.369-2.996-7.784-5.337-12.153-8.332-1.752-3.942-3.679-7.884-7.963-9.179-5.039-1.524-8.164,3.723-12.207,5.88-7.322,3.906-14.446,3.745-21.703-1.207-9.786-6.678-19.957-12.817-30.17-18.836-13.147-7.747-16.113-7.06-26.672,4.99-11.921,13.604-25.345,22.556-44.074,15.167-.71-.28-1.336-.76-1.81-1.358-8.325-10.521-16.651-21.042-24.976-31.562-.119-.151-.228-.309-.327-.473-12.2-20.414-24.268-40.909-36.686-61.188-3.444-5.624-5.984-12.11-11.863-15.923-.551-.358-1.031-.818-1.387-1.37-7.545-11.706-19.392-17.023-32.067-21.11-11.841-4.167-24.181-4.935-36.497-5.871-5.896-.448-11.674-1.886-17.094-4.251-6.882-3.003-13.764-6.006-20.646-9.01-.191-.083-.376-.18-.553-.29-24.864-15.388-49.685-30.838-71.503-50.512-9.872-11.852-25.699-30.853-35.571-42.705-13.543-21.379-24.546-44.114-34.608-67.35-.099-.228-.178-.463-.237-.704-.433-1.756-.866-3.512-1.299-5.268-4.943-18.958-9.886-37.917-14.829-56.875-.262-1.537-.522-3.065-.784-4.602-1.215-14.682-2.43-29.363-3.645-44.045l1.892-35.546c45.466-9.769,92.647-14.921,141.032-14.921ZM213.023,205.298c.453,.652,1.073,1.206,1.884,1.547,10.771,4.538,21.473,9.323,32.125,14.301,48.917,22.86,86.592,57.505,115.736,102.256,2.227,3.419,4.035,7.235,5.845,10.743,15.229,29.517,16.822,39.941,23.967,60.411,15.731,45.065,25.565,91.053,22.506,139.14-.769,12.086-2.692,23.992-5.579,35.759-1.107,4.513-3.602,8.223-6.134,11.945-2.877,4.23-5.913,8.354-8.752,12.609-5.778,8.661-6.815,17.818-2.581,27.441,8.91,20.252,17.829,40.499,26.74,60.75,7.178,16.313,14.399,32.596,20.63,49.319,2.84,7.623,1.187,13.483-4.182,18.964-7.552,7.709-16.276,13.691-26.142,18.018-2.062,.904-4.183,1.676-6.291,2.472-16.884,6.378-18.54,9.165-16.035,26.96,1.027,7.293,2.485,14.556,1.815,21.984-.746,8.271-4.236,14.546-12.828,16.764-5.27,1.36-7.391,4.691-6.922,9.948,.146,1.631,.082,3.292,.35,4.899,2.094,12.532-4.06,20.758-14.692,25.445-8.447,3.723-11.304,9.768-11.739,18.244-.369,7.184-.331,14.325,.398,21.462,1.364,13.355-3.328,25.056-10.278,35.92-4.963,7.758-13.078,10.923-21.812,12.385-14.858,2.487-29.566,.715-43.725-3.618-23.926-7.323-47.848-14.303-72.902-16.605-40.052-3.679-78.456,.331-114.134,16.374-.472,1.257-.827,2.2-1.19,3.168-40.764-86.39-63.567-182.921-63.567-284.781,0-185.412,75.529-353.177,197.49-474.226Zm470.664,1142.38c-56.167,0-110.711-6.943-162.832-19.995,4.33-3.987,8.492-8.155,12.583-12.4,.058-.06,.118-.119,.18-.175,7.694-6.987,14.986-14.357,21.427-22.535,.049-.063,.101-.124,.154-.183,6.651-7.353,13.143-14.807,16.072-24.507,.563-1.487,1.481-3.914,2.044-5.4,4.694-10.718,9.339-21.463,16.614-30.785,.165-.211,.348-.412,.544-.595,7.351-6.851,16.646-10.394,25.403-14.852,.243-.124,.501-.222,.764-.294,25.824-7.043,38.763-24.097,37.344-49.535-.888-15.906-6.557-30.227-15.1-43.514-1.503-2.595-2.895-5.26-4.525-7.773-14.835-22.872-32.701-44.09-39.044-71.585-.033-.144-.061-.291-.083-.437-1.939-12.816-1.142-25.296,4.631-37.165,.427-.11,.623-.384,.588-.824,5.812-7.919,13.055-13.609,22.525-15.825,2.981-.18,7.745-.469,10.726-.65,6.459,.575,12.922,.494,19.339-.554,11.763-1.921,19.417-9.465,21.368-21.156,.831-4.983,1.26-10.055,.253-15.099-.076-.381-.106-.771-.077-1.159,.766-10.06,1.644-20.089,9.66-28.251,2.166-1.473,5.586-3.798,7.753-5.271,2.977-1.321,5.954-2.643,8.931-3.964,.851-.378,1.804-.474,2.714-.274,12.302,2.716,12.533,2.416,11.914-7.59,.12-1.76,.239-3.509,.359-5.269,2.54-11.771,10.285-18.161,21.947-20.5,.197-.04,.401-.065,.602-.078,10.856-.696,20.633-3.53,26.744-13.631,6.015-8.055,6.953-16.719,3.118-25.957-3.488-9.404-6.975-18.807-10.463-28.21-.143-.385-.237-.791-.269-1.201-.45-5.797,.492-11.315,3.307-16.458,.172-.314,.384-.615,.621-.882,5.841-6.581,13.537-8.921,21.776-10.017,7.706,.712,15.135,1.398,22.841,2.11,5.454,1.748,11.072,2.398,16.765,2.54,.14,.004,.28,.015,.419,.034,24.491,3.415,49.212,3.182,73.827,4.626,.316,.018,.628,.076,.932,.165,3.759,1.094,7.604,1.464,11.504,1.366,.351-.009,.702,.025,1.044,.104,7.787,1.799,15.618,3.098,23.654,1.991,.127-.017,.257-.027,.384-.029,13.392-.187,23.087-6.903,29.186-19.972,4.406-6.415,8.7-12.669,13.106-19.084,1-1.002,2.001-2.005,3.001-3.007,.234-.235,.494-.445,.773-.623,7.102-4.528,14.624-7.952,22.912-9.933,11.876-2.84,24.068-4.326,35.68-8.281,.142-.048,.287-.088,.434-.118,10.067-2.064,19.83-5.184,29.533-8.514,9.916-3.139,19.832-6.277,29.748-9.415,19.697-5.378,39.494-10.332,59.564-14.122,12.856-1.372,25.656-2.739,38.512-4.111l7.154-.208c8.199,.436,16.356,.87,24.555,1.306l19.528,2.659c6.52,1.481,13.002,2.953,19.521,4.434l22.181,7.138c6.08,2.454,12.137,4.898,18.217,7.352l17.796,8.724c.081,.04,.161,.082,.24,.126,7.585,4.269,15.069,8.7,22.478,13.251-32.267,338.934-317.719,604.044-665.104,604.044Z"/><g id="B1MG"><path id="_1" class="cls-1" d="M530.484,541.564v153.759c0,11.514-6.237,17.751-17.511,17.751-11.514,0-17.511-6.237-17.511-17.751v-136.489l-40.299,34.542c-7.676,6.717-15.352,5.757-21.589-1.679-5.997-7.436-5.517-14.872,2.159-21.589l51.333-44.137c5.997-5.037,11.514-6.957,19.19-6.957h1.679c14.392,0,22.548,8.156,22.548,22.548Z"/><path id="M" class="cls-1" d="M753.085,541.804v153.519c0,11.514-5.997,17.751-17.271,17.751s-17.271-6.237-17.271-17.751l1.2-124.014-47.015,77.959c-4.318,7.196-8.635,10.554-14.152,10.554s-10.315-3.358-14.393-10.554l-47.015-77.719,.959,123.775c.24,11.514-5.757,17.751-17.031,17.751-11.034,0-17.271-6.237-17.271-17.751v-153.519c0-14.632,8.156-22.788,22.788-22.788h1.919c9.355,0,16.311,4.557,21.589,13.433l48.454,81.077,48.214-81.077c5.037-8.876,12.234-13.433,21.589-13.433h1.919c14.632,0,22.788,8.156,22.788,22.788Z"/><g id="Million"><path class="cls-1" d="M613.111,727.942v33.044c0,1.316-.752,2.116-2.069,2.116s-2.115-.799-2.068-2.162l.141-29.377-11.609,18.567c-.517,.893-1.128,1.316-1.88,1.316s-1.363-.423-1.88-1.316l-11.563-18.473,.094,29.284c0,1.363-.752,2.162-2.068,2.162-1.363,0-2.116-.799-2.116-2.116v-33.044c0-1.739,.987-2.773,2.726-2.773h.283c1.127,0,1.927,.564,2.585,1.551l11.939,19.225,11.939-19.225c.611-.987,1.458-1.551,2.586-1.551h.234c1.74,0,2.727,1.034,2.727,2.773Z"/><path class="cls-1" d="M620.492,728.741v-1.739c0-1.223,.705-1.927,2.021-1.927s2.021,.705,2.021,1.927v1.739c0,1.175-.705,1.88-2.021,1.88s-2.021-.705-2.021-1.88Zm0,32.244v-22.938c0-1.316,.705-2.068,2.021-2.068s2.021,.752,2.021,2.068v22.938c0,1.316-.705,2.116-2.021,2.116s-2.021-.799-2.021-2.116Z"/><path class="cls-1" d="M631.162,758.071v-30.882c0-1.316,.705-2.115,2.021-2.115s2.021,.799,2.021,2.115v30.365c0,1.175,.564,2.021,1.645,2.35,.564,.235,1.222,.564,1.222,1.551,0,1.034-.893,1.645-2.162,1.645-2.82,0-4.747-2.021-4.747-5.03Z"/><path class="cls-1" d="M642.491,758.071v-30.882c0-1.316,.705-2.115,2.021-2.115s2.021,.799,2.021,2.115v30.365c0,1.175,.564,2.021,1.645,2.35,.564,.235,1.222,.564,1.222,1.551,0,1.034-.893,1.645-2.162,1.645-2.82,0-4.747-2.021-4.747-5.03Z"/><path class="cls-1" d="M653.96,728.741v-1.739c0-1.223,.705-1.927,2.021-1.927s2.021,.705,2.021,1.927v1.739c0,1.175-.705,1.88-2.021,1.88s-2.021-.705-2.021-1.88Zm0,32.244v-22.938c0-1.316,.705-2.068,2.021-2.068s2.021,.752,2.021,2.068v22.938c0,1.316-.705,2.116-2.021,2.116s-2.021-.799-2.021-2.116Z"/><path class="cls-1" d="M663.502,751.961v-4.842c0-6.769,4.654-11.281,11.657-11.281,6.957,0,11.61,4.512,11.61,11.281v4.842c0,6.769-4.653,11.281-11.61,11.281-7.003,0-11.657-4.512-11.657-11.281Zm19.224-.188v-4.512c0-4.701-3.008-7.849-7.568-7.849s-7.614,3.149-7.614,7.849v4.512c0,4.748,3.055,7.897,7.614,7.897s7.568-3.149,7.568-7.897Z"/><path class="cls-1" d="M714.456,746.038v14.947c0,1.316-.659,2.116-2.021,2.116-1.269,0-2.021-.799-2.021-2.116v-14.383c0-4.325-2.82-7.191-7.004-7.191-4.23,0-7.051,2.867-7.051,7.191v14.383c0,1.316-.705,2.116-2.021,2.116s-2.02-.799-2.02-2.116v-22.938c0-1.316,.705-2.068,1.88-2.068,1.223,0,1.88,.752,1.927,2.068v1.363c1.834-2.257,4.654-3.572,8.132-3.572,6.111,0,10.2,4.089,10.2,10.2Z"/></g><g id="Genomes"><path class="cls-1" d="M762.717,743.782v5.405c0,8.414-5.782,14.054-14.43,14.054-8.743,0-14.571-5.64-14.571-14.148v-9.683c0-8.696,5.828-14.477,14.618-14.477,5.781,0,10.764,3.055,12.785,7.427,.423,.893,.235,2.256-1.081,2.726-1.176,.423-2.116-.141-2.586-.799-1.974-3.62-5.452-5.547-9.119-5.547-6.252,0-10.388,4.371-10.388,10.905v9.213c0,6.345,4.136,10.576,10.341,10.576s10.199-4.183,10.199-10.482v-3.384h-9.588c-1.223,0-1.928-.658-1.928-1.833,0-1.222,.705-1.88,1.928-1.88h11.891c1.223,0,1.928,.705,1.928,1.927Z"/><path class="cls-1" d="M817.573,746.038v14.947c0,1.316-.659,2.116-2.021,2.116-1.269,0-2.021-.799-2.021-2.116v-14.383c0-4.325-2.82-7.191-7.004-7.191-4.23,0-7.051,2.867-7.051,7.191v14.383c0,1.316-.705,2.116-2.021,2.116s-2.02-.799-2.02-2.116v-22.938c0-1.316,.705-2.068,1.88-2.068,1.223,0,1.88,.752,1.927,2.068v1.363c1.834-2.257,4.654-3.572,8.132-3.572,6.111,0,10.2,4.089,10.2,10.2Z"/><path class="cls-1" d="M822.838,751.961v-4.842c0-6.769,4.653-11.281,11.657-11.281,6.956,0,11.61,4.512,11.61,11.281v4.842c0,6.769-4.654,11.281-11.61,11.281-7.004,0-11.657-4.512-11.657-11.281Zm19.224-.188v-4.512c0-4.701-3.009-7.849-7.568-7.849s-7.615,3.149-7.615,7.849v4.512c0,4.748,3.055,7.897,7.615,7.897s7.568-3.149,7.568-7.897Z"/><path class="cls-1" d="M890.995,745.803v15.182c0,1.316-.705,2.116-2.021,2.116s-2.021-.799-2.021-2.116v-14.618c0-4.183-2.726-6.956-6.815-6.956-4.043,0-6.816,2.773-6.816,6.956v14.618c0,1.316-.658,2.116-2.02,2.116-1.269,0-2.021-.799-2.021-2.116v-14.618c0-4.183-2.726-6.956-6.769-6.956-4.089,0-6.815,2.773-6.815,6.956v14.618c0,1.316-.705,2.116-2.021,2.116s-2.021-.799-2.021-2.116v-22.938c0-1.316,.705-2.068,1.88-2.068,1.222,0,1.88,.752,1.927,2.068v1.223c1.786-2.162,4.512-3.431,7.897-3.431,3.948,0,7.003,1.739,8.648,4.653,1.74-2.914,4.888-4.653,8.978-4.653,6.017,0,10.013,3.995,10.013,9.965Z"/><path class="cls-1" d="M919.105,747.025v2.116c0,1.128-.611,1.786-1.74,1.786h-17.016v1.081c0,4.606,3.009,7.662,7.521,7.662,3.102,0,5.594-1.269,7.097-3.384,.517-.564,1.128-.705,1.834-.47,1.503,.376,1.974,1.598,1.41,2.491-1.645,3.15-5.547,4.936-10.341,4.936-6.956,0-11.563-4.465-11.563-11.234v-4.982c0-6.721,4.559-11.187,11.422-11.187,6.815,0,11.375,4.465,11.375,11.187Zm-4.043,.047c0-4.606-2.914-7.661-7.332-7.661s-7.38,3.055-7.38,7.661v.564h14.712v-.564Z"/><path class="cls-1" d="M923.383,758.306c-.564-.893-.047-2.115,1.458-2.491,.705-.235,1.269-.094,1.833,.47,1.551,2.068,4.043,3.384,7.051,3.384,4.089,0,6.863-1.739,6.863-4.371v-.141c0-7.474-17.204-.235-17.204-11.375v-.329c0-4.747,4.184-7.614,10.435-7.614,4.371,0,7.944,1.739,9.589,4.842,.517,.893,0,2.115-1.458,2.491-.705,.188-1.363,.094-1.88-.517-1.363-2.068-3.572-3.243-6.298-3.243-3.902,0-6.487,1.598-6.487,4.183v.047c0,7.238,17.251,.094,17.251,11.328v.376c0,4.889-4.372,7.897-10.906,7.897-4.606,0-8.507-1.833-10.247-4.936Z"/><path class="cls-1" d="M789.749,747.025v2.116c0,1.128-.611,1.786-1.739,1.786h-17.016v1.081c0,4.606,3.008,7.662,7.52,7.662,3.103,0,5.594-1.269,7.098-3.384,.517-.564,1.128-.705,1.833-.47,1.504,.376,1.975,1.598,1.41,2.491-1.645,3.15-5.546,4.936-10.341,4.936-6.956,0-11.563-4.465-11.563-11.234v-4.982c0-6.721,4.56-11.187,11.422-11.187,6.816,0,11.375,4.465,11.375,11.187Zm-4.042,.047c0-4.606-2.914-7.661-7.333-7.661s-7.379,3.055-7.379,7.661v.564h14.712v-.564Z"/></g><g id="One"><path class="cls-1" d="M476.395,751.961v-4.842c0-6.769,4.654-11.281,11.657-11.281,6.957,0,11.61,4.512,11.61,11.281v4.842c0,6.769-4.653,11.281-11.61,11.281-7.003,0-11.657-4.512-11.657-11.281Zm19.224-.188v-4.512c0-4.701-3.008-7.849-7.568-7.849s-7.614,3.149-7.614,7.849v4.512c0,4.748,3.055,7.897,7.614,7.897s7.568-3.149,7.568-7.897Z"/><path class="cls-1" d="M527.349,746.038v14.947c0,1.316-.659,2.116-2.021,2.116-1.269,0-2.021-.799-2.021-2.116v-14.383c0-4.325-2.82-7.191-7.004-7.191-4.23,0-7.051,2.867-7.051,7.191v14.383c0,1.316-.705,2.116-2.021,2.116s-2.02-.799-2.02-2.116v-22.938c0-1.316,.705-2.068,1.88-2.068,1.223,0,1.88,.752,1.927,2.068v1.363c1.834-2.257,4.654-3.572,8.132-3.572,6.111,0,10.2,4.089,10.2,10.2Z"/><path class="cls-1" d="M555.706,746.955v2.116c0,1.128-.611,1.786-1.739,1.786h-17.016v1.081c0,4.606,3.008,7.662,7.52,7.662,3.103,0,5.594-1.269,7.098-3.384,.517-.564,1.128-.705,1.833-.47,1.504,.376,1.975,1.598,1.41,2.491-1.645,3.15-5.546,4.936-10.341,4.936-6.956,0-11.563-4.465-11.563-11.234v-4.982c0-6.721,4.56-11.187,11.422-11.187,6.816,0,11.375,4.465,11.375,11.187Zm-4.042,.047c0-4.606-2.914-7.661-7.333-7.661s-7.379,3.055-7.379,7.661v.564h14.712v-.564Z"/></g><path id="G" class="cls-1" d="M939.006,614.734v25.273c0,43.87-31.234,73.197-78.203,73.197s-78.442-29.565-78.442-74.15v-45.301c0-45.062,31.71-74.865,79.395-74.865,26.942,0,52.93,11.444,64.613,32.664,3.338,5.961,2.623,17.643-8.106,21.696-9.776,3.576-16.928-.238-20.505-4.292-10.491-13.59-24.319-19.313-36.002-19.313-26.703,0-44.585,18.359-44.585,46.016v41.486c0,27.18,17.643,45.301,43.632,45.301,27.18,0,43.393-17.643,43.393-44.347v-8.822h-32.903c-9.776,0-15.259-5.246-15.259-15.021,0-9.537,5.484-14.782,15.259-14.782h52.215c10.014,0,15.498,5.484,15.498,15.259Z"/></g></g></g></svg>